<svg xmlns="http://www.w3.org/2000/svg" viewBox="0 0 220 44" role="img" aria-label="Senedoo">
  <defs>
    <linearGradient id="sg" x1="0%" y1="0%" x2="100%" y2="100%">
      <stop offset="0%" style="stop-color:#5eead4"/>
      <stop offset="100%" style="stop-color:#0d9488"/>
    </linearGradient>
  </defs>
  <rect x="0" y="2" width="40" height="40" rx="10" fill="url(#sg)"/>
  <path fill="#0a0f1a" d="M22 12c-4 0-7 2.2-7 5.5 0 2.5 1.8 4 5 4.8l2.2.5c2 .5 2.8 1 2.8 2.2 0 1.5-1.5 2.5-4 2.5-2.6 0-4.5-1.2-5-3.2l-4.2 1.2c1 4.2 5 6.5 9.3 6.5 5.2 0 8.7-2.6 8.7-6.5 0-3.3-2-5-6-6l-2.3-.5c-1.8-.4-2.5-1-2.5-2 0-1.4 1.3-2.3 3.8-2.3 2.4 0 4 1 4.5 2.8l4-1.2C29.5 13.5 26.2 12 22 12z"/>
  <text x="50" y="30" font-family="Segoe UI, system-ui, sans-serif" font-size="21" font-weight="700" fill="#e8eef7">senedoo</text>
</svg>
